<svg xmlns="http://www.w3.org/2000/svg" width="220" height="170" viewBox="0 0 220 170" fill="none">
  <g opacity="0.95" stroke="#F5F5F5" stroke-width="5" stroke-linecap="round" stroke-linejoin="round">
    <path d="M32 14 199 31 188 153 20 139 32 14Z"/>
    <path d="M86 25 189 35 180 144 77 135 86 25Z"/>
    <path d="M33 14 86 20 76 144 20 139 33 14Z"/>
    <path d="M82 45 88 45 87 65 80 64 82 45Z"/>
    <path d="M75 107 83 108 82 127 73 126 75 107Z"/>
    <path d="M95 40 178 48 171 136 88 128 95 40Z"/>
    <circle cx="136" cy="86" r="37"/>
    <circle cx="136" cy="86" r="23"/>
    <circle cx="136" cy="86" r="16"/>
    <path d="M116 86H103M169 86H156M136 66V54M136 118V106M121 71 112 62M160 110 151 101M151 71 160 62M112 110 121 101"/>
    <path d="M105 123 168 129 168 139 104 133 105 123Z"/>
    <path d="M30 140 59 143 58 153 29 151 30 140Z"/>
    <path d="M91 145 122 148 121 158 90 156 91 145Z"/>
    <path d="M156 151 187 154 186 164 155 162 156 151Z"/>
  </g>
</svg>
